<svg width="1593" height="290" viewBox="0 0 1593 290" fill="none" xmlns="http://www.w3.org/2000/svg">
<g clip-path="url(#clip0)">
<path d="M290 0H0V290H290V0Z" fill="#87CCD3"/>
<path d="M290 73.4062H0V290H290V73.4062Z" fill="url(#paint0_linear)"/>
<path fill-rule="evenodd" clip-rule="evenodd" d="M38.0569 244.687V106.032H41.6933V244.687H38.0569Z" fill="#C3E6E9"/>
<path fill-rule="evenodd" clip-rule="evenodd" d="M80.6509 244.687V106.032H84.2873V244.687H80.6509Z" fill="#C3E6E9"/>
<path fill-rule="evenodd" clip-rule="evenodd" d="M123.245 244.687V106.032H126.881V244.687H123.245Z" fill="#C3E6E9"/>
<path fill-rule="evenodd" clip-rule="evenodd" d="M164.932 244.687V106.032H168.568V244.687H164.932Z" fill="#C3E6E9"/>
<path fill-rule="evenodd" clip-rule="evenodd" d="M206.619 244.687V106.032H210.256V244.687H206.619Z" fill="#C3E6E9"/>
<path fill-rule="evenodd" clip-rule="evenodd" d="M249.213 246.5V106.032H252.849V246.5H249.213Z" fill="#C3E6E9"/>
<path fill-rule="evenodd" clip-rule="evenodd" d="M37.1562 243.775H252.844V247.412H37.1562V243.775Z" fill="#C3E6E9"/>
<path fill-rule="evenodd" clip-rule="evenodd" d="M38.0625 152.245H251.031V155.881H38.0625V152.245Z" fill="#C3E6E9"/>
<path fill-rule="evenodd" clip-rule="evenodd" d="M38.0625 198.463H251.031V202.1H38.0625V198.463Z" fill="#C3E6E9"/>
<path fill-rule="evenodd" clip-rule="evenodd" d="M39.875 106.026H251.031V109.663H39.875V106.026Z" fill="#C3E6E9"/>
<path d="M235.172 120.532H54.8281C48.5718 120.532 43.5 125.603 43.5 131.86C43.5 138.117 48.5718 143.188 54.8281 143.188H235.172C241.429 143.188 246.5 138.117 246.5 131.86C246.5 125.603 241.429 120.532 235.172 120.532Z" fill="#649A20"/>
<path d="M188.953 212.062H102.859C96.6024 212.062 91.531 217.134 91.531 223.391C91.531 229.647 96.6024 234.719 102.859 234.719H188.953C195.21 234.719 200.281 229.647 200.281 223.391C200.281 217.134 195.21 212.062 188.953 212.062Z" fill="#F1F2F2"/>
<path d="M239.703 164.938H142.735C136.478 164.938 131.406 170.009 131.406 176.266C131.406 182.522 136.478 187.594 142.735 187.594H239.703C245.96 187.594 251.031 182.522 251.031 176.266C251.031 170.009 245.96 164.938 239.703 164.938Z" fill="#1C8BC7"/>
<path d="M62.6272 296.108V232.574H-0.90625C1.14321 266.39 28.8111 294.057 62.6272 296.108Z" fill="#2D909D"/>
<path fill-rule="evenodd" clip-rule="evenodd" d="M-17.8517 -33.0708C-28.0382 -33.0708 -36.696 -23.8077 -36.696 -11.8608V294.612C-36.696 306.558 -28.0382 315.821 -17.8517 315.821H308.758C318.945 315.821 327.602 306.558 327.602 294.612V-11.8608C327.602 -23.8077 318.945 -33.0708 308.758 -33.0708H-17.8517ZM-41.2415 -11.8608C-41.2415 -25.8521 -30.9905 -37.6162 -17.8517 -37.6162H308.758C321.897 -37.6162 332.148 -25.8521 332.148 -11.8608V294.612C332.148 308.603 321.897 320.367 308.758 320.367H-17.8517C-30.9905 320.367 -41.2415 308.603 -41.2415 294.612V-11.8608Z" fill="#AADADF"/>
<path fill-rule="evenodd" clip-rule="evenodd" d="M-24.0225 -7.16173C-24.0225 -14.2333 -18.8272 -20.3975 -11.9143 -20.3975H302.821C309.734 -20.3975 314.929 -14.2333 314.929 -7.16173V293.537C314.929 300.609 309.734 306.773 302.821 306.773H-11.9143C-18.8272 306.773 -24.0225 300.609 -24.0225 293.537V-7.16173ZM-11.9143 -15.852C-15.8654 -15.852 -19.477 -12.1995 -19.477 -7.16173V293.537C-19.477 298.575 -15.8654 302.228 -11.9143 302.228H302.821C306.772 302.228 310.384 298.575 310.384 293.537V-7.16173C310.384 -12.1995 306.772 -15.852 302.821 -15.852H-11.9143Z" fill="#AADADF"/>
<path d="M63.9631 225.656H0V289.62H63.9631V225.656Z" fill="#48868C"/>
<path fill-rule="evenodd" clip-rule="evenodd" d="M-3.63208 71.1409C-3.63208 69.8857 -2.61454 68.8682 -1.35935 68.8682H291.359C292.615 68.8682 293.632 69.8857 293.632 71.1409C293.632 72.3961 292.615 73.4137 291.359 73.4137H-1.35935C-2.61454 73.4137 -3.63208 72.3961 -3.63208 71.1409Z" fill="white" fill-opacity="0.5"/>
<path d="M294.325 224.448L213.426 122.139C191.831 93.8599 155.837 60.4375 155.837 60.4375L152.238 63.5226H151.724L148.639 66.0934C148.639 66.0934 171.263 109.285 192.858 138.08L284.041 259.411C290.211 249.128 294.325 237.302 294.325 224.448Z" fill="#FFDD00"/>
<path d="M160.979 68.6638C154.809 60.4369 147.096 53.2383 140.411 46.0397C139.898 45.5255 139.383 45.0113 138.869 45.5255C138.355 45.5255 138.869 46.5539 139.383 47.068C144.525 55.8092 149.667 65.0645 155.837 72.7773L160.979 68.6638Z" fill="#00558B"/>
<path d="M194.401 99.0006C175.377 78.4335 156.352 59.9229 156.352 59.9229L152.752 63.0079H152.238L148.639 66.0931C148.639 66.0931 160.979 89.2314 175.89 112.883L194.401 99.0006Z" fill="#F3C206"/>
</g>
<g clip-path="url(#clip1)">
<path d="M1091.92 78H1081.71V216H1091.92V78Z" fill="#5F6369"/>
<path d="M1195.96 138.213C1187.16 126.286 1172.65 118.507 1157.11 118.507C1130.17 118.507 1108.41 140.288 1108.41 167.254C1108.41 194.22 1130.17 216 1157.11 216C1173.17 216 1187.16 208.221 1195.96 196.294V216H1205.8V170.365V166.217V117.989H1195.96V138.213ZM1157.11 207.185C1135.35 207.185 1117.22 189.553 1117.22 167.254C1117.22 145.473 1134.83 127.323 1157.11 127.323C1179.38 127.323 1197 144.955 1197 167.254C1197 189.553 1178.86 207.185 1157.11 207.185Z" fill="#5F6369"/>
<path d="M1268.51 119.026C1257.11 119.026 1247.25 123.693 1239.48 133.028V117.989H1230.15V215.482H1239.48V158.438C1239.48 150.141 1242.59 142.881 1248.81 137.176C1254.52 131.472 1261.78 128.36 1270.07 128.36C1278.36 128.36 1285.1 131.472 1291.33 137.176C1297.03 142.881 1300.14 150.141 1300.14 158.438V216H1309.47V158.438C1309.47 147.548 1305.84 138.213 1298.07 130.953C1289.78 122.656 1279.92 119.026 1268.51 119.026Z" fill="#5F6369"/>
<path d="M1368.26 119.287C1356.86 119.287 1347 123.917 1339.22 133.177V118.773H1329.89V215.486H1339.22V158.899C1339.22 150.668 1342.33 143.466 1348.55 137.807C1354.26 132.148 1361.52 129.062 1369.81 129.062C1378.11 129.062 1384.85 132.148 1391.08 137.807C1396.78 143.466 1399.89 150.668 1399.89 158.899V216H1409.22V158.384C1409.22 147.581 1405.59 138.321 1397.81 131.119C1388.99 123.403 1379.66 119.287 1368.26 119.287Z" fill="#5F6369"/>
<path d="M1475.72 119.557C1462.25 119.557 1450.33 124.174 1441 133.92C1431.16 143.667 1426.5 154.953 1426.5 167.778C1426.5 181.116 1431.16 192.402 1441 201.636C1450.85 211.383 1462.25 216 1475.72 216C1489.19 216 1501.1 211.383 1510.43 201.636C1515.62 196.506 1519.75 190.35 1521.83 184.194H1510.95C1508.88 188.298 1506.28 191.889 1503.17 194.967C1495.41 202.662 1486.08 206.253 1475.72 206.253C1464.84 206.253 1456.03 202.662 1448.26 194.967C1441 187.785 1437.37 179.064 1436.86 169.317H1515.1H1524.42H1525.46C1525.46 168.805 1525.46 168.291 1525.46 167.265C1525.46 153.927 1520.79 142.641 1510.95 133.408C1501.1 124.174 1489.19 119.557 1475.72 119.557ZM1437.37 160.083C1438.93 152.388 1442.56 145.719 1448.26 140.076C1456.03 132.382 1465.36 128.791 1475.72 128.791C1486.59 128.791 1495.41 132.382 1503.17 140.076C1508.88 145.719 1512.51 152.388 1514.06 160.083H1437.37Z" fill="#5F6369"/>
<path d="M1555.18 143.667C1554.66 144.18 1554.15 145.206 1553.63 146.232V119.557H1544.31V216H1553.63V168.805C1553.63 168.291 1553.63 167.778 1554.15 167.265C1557.26 158.544 1560.89 151.362 1565.54 145.206C1573.84 134.947 1582.64 129.817 1593 129.817V120.07C1577.98 120.583 1565.54 128.278 1555.18 143.667Z" fill="#5F6369"/>
<path d="M1019.2 79.5684H970.014H966.94H962.329V84.1672V96.4307V216H972.064V157.237L1019.72 156.726C1030.48 156.726 1039.7 153.15 1046.87 145.485C1054.56 137.82 1058.15 128.622 1058.15 117.892C1058.15 107.161 1054.56 97.9637 1046.87 90.299C1039.19 83.1452 1029.97 79.5684 1019.2 79.5684ZM1040.21 138.842C1034.58 144.463 1027.4 147.529 1019.2 147.529H971.551V88.766H1019.2C1027.4 88.766 1034.06 91.8319 1040.21 97.4527C1045.85 103.073 1048.92 110.227 1048.92 118.403C1048.92 126.579 1045.85 133.221 1040.21 138.842Z" fill="#5F6369"/>
<path d="M368.533 81.0956C367.511 81.6047 367 83.1319 367 84.15V211.419C367 212.945 367.511 213.964 368.533 214.473C369.555 215.491 370.576 216 371.598 216H462.033V206.837H376.708V152.366H450.282L457.434 142.694H376.708V89.2407H462.033V79.5684H371.598C370.576 79.5684 369.555 80.0774 368.533 81.0956Z" fill="#5F6369"/>
<path d="M494.514 206.052L581.45 86.4203C582.472 84.8931 582.472 83.3658 581.961 81.3296C580.938 79.8023 579.404 78.7842 577.87 78.7842H485.821V87.9475H568.665L481.73 207.58C480.707 209.107 480.707 211.143 481.218 212.671C482.241 214.197 483.775 215.216 485.309 215.216H582.983V206.052H494.514Z" fill="#5F6369"/>
<path d="M930.127 120.341L900.419 160.538L871.223 120.341H859.442L894.785 168.679L859.442 216H871.223L900.419 176.312L930.127 216H941.908L906.054 168.679L941.908 120.341H930.127Z" fill="#5F6369"/>
<path d="M830.096 139.458C821.406 127.721 807.095 120.067 791.25 120.067C764.671 120.067 743.204 141.499 743.204 168.033C743.204 194.568 764.671 216 791.25 216C807.095 216 820.896 208.346 830.096 196.609V216H839.807V171.095V167.013V119.557H830.096V139.458ZM791.761 207.325C770.294 207.325 752.404 189.465 752.404 168.033C752.404 146.602 770.294 128.742 791.761 128.742C813.229 128.742 831.118 146.602 831.118 168.033C831.118 189.976 813.229 207.325 791.761 207.325Z" fill="#5F6369"/>
<path d="M719.718 78.9752C717.675 78.4658 715.632 78.9752 714.61 80.5034L665.057 148.252L615.504 80.5034C614.482 78.9752 612.439 78.4658 610.396 78.9752C608.352 79.4846 607.331 81.5221 607.331 83.5597V216H616.526V97.3131L660.97 157.93C661.481 158.439 661.481 158.949 662.503 159.459C664.547 160.987 667.611 160.477 669.144 158.439L714.099 97.3131V215.49H722.783V83.0503C722.783 81.5221 721.251 79.4846 719.718 78.9752Z" fill="#5F6369"/>
</g>
<defs>
<linearGradient id="paint0_linear" x1="78.9444" y1="301.432" x2="313.725" y2="20.5906" gradientUnits="userSpaceOnUse">
<stop stop-color="#6BB4BC"/>
<stop offset="1" stop-color="#9DDCE3"/>
</linearGradient>
<clipPath id="clip0">
<rect width="290" height="290" rx="62" fill="white"/>
</clipPath>
<clipPath id="clip1">
<rect width="1226" height="138" fill="white" transform="translate(367 78)"/>
</clipPath>
</defs>
</svg>
