<svg width="405" height="78" viewBox="0 0 405 78" fill="none" xmlns="http://www.w3.org/2000/svg">
<g clip-path="url(#clip0_6_142)">
<path d="M60.1218 0H59.794H18.5224H18.1946C8.18406 0 0 8.18526 0 18.1973V59.8027C0 69.803 8.18406 78 18.1946 78H18.5224H50.5679L66.3389 76.8758L66.3272 76.8876C70.109 75.4941 73.317 72.8828 75.4597 69.522L78.2813 60.3765C78.2813 60.1775 78.3048 59.9901 78.3048 59.8027V43.924V35.1064V18.1973C78.3165 8.18526 70.1207 0 60.1218 0Z" fill="#198BC6"/>
<path d="M41.3184 29.1109H46.6223C45.3227 27.9399 44.1753 26.7689 43.2971 25.5979H39.5037C39.6676 25.5979 40.3232 26.7689 41.3184 29.1109Z" fill="#187BB6"/>
<path d="M41.5759 23.8063L41.1544 24.0991C39.8899 22.6705 38.5318 21.2887 37.2556 19.9186C37.0917 19.743 36.9278 19.661 36.8458 19.7195C36.7756 19.7781 36.799 20.0123 36.9278 20.2114C37.7708 21.5814 38.6255 23.256 39.5036 24.427H42.1731C41.7984 24.427 41.5759 23.8063 41.5759 23.8063Z" fill="#187BB6"/>
<path d="M41.939 30.2819C44.2689 33.7949 47.8985 40.329 51.3758 44.9896L72.8253 72.8944C72.837 72.8827 72.8604 72.8124 72.8722 72.8007L73.5629 72.0279C73.7269 71.8405 73.9025 71.6531 74.0664 71.4658L74.3006 71.173C75.4011 69.7913 76.3144 68.2573 76.9818 66.6062L57.0894 40.4344C54.3029 36.8394 50.6733 33.1274 47.6175 29.9774L47.5121 30.2819H41.939Z" fill="#187BB6"/>
<path d="M27.491 77.9999H28.6618V48.4205L27.491 46.9685V77.9999Z" fill="#53A0D7"/>
<path d="M28.6618 25.5979H39.5153C39.4919 25.5979 39.4802 25.4457 39.4802 25.4457L39.9251 25.1178C39.7729 24.8953 39.6324 24.4386 39.4919 24.4386H27.491V42.308L28.6618 43.76V25.5979Z" fill="#53A0D7"/>
<path d="M45.4982 25.5979L57.7334 15.0589H78.0237C77.9535 15.0589 77.8832 13.8879 77.7896 13.8879H57.3236L45.0884 24.4269H42.1614C42.4541 24.4269 42.8287 24.4269 43.2971 25.5979H45.4982Z" fill="#53A0D7"/>
<path d="M39.4685 25.4339C39.4685 25.4339 39.4802 25.5862 39.5036 25.5862H43.2971C42.8288 24.4152 42.4424 24.4152 42.1614 24.4152H39.4919C39.6324 24.4152 39.7729 24.8718 39.9251 25.0943L39.4685 25.4339Z" fill="#408DC3"/>
<path d="M32.1743 78H33.3451V54.2288L32.1743 52.7767V78Z" fill="#53A0D7"/>
<path d="M78.3164 19.7429V18.5719H59.5364L47.1139 29.1109H46.6222C46.95 29.1109 47.2779 29.7315 47.6174 30.0828L59.9345 19.7429H78.3164Z" fill="#53A0D7"/>
<path d="M32.1743 29.1108V48.1044L33.3451 49.5564V30.2818H41.939C41.7165 29.1108 41.5175 29.1108 41.3185 29.1108H32.1743Z" fill="#53A0D7"/>
<path d="M41.3184 29.1108C41.5174 29.1108 41.7164 29.1108 41.9389 30.2818H47.5237L47.6291 30.1647C47.2896 29.8134 46.9617 29.1108 46.6339 29.1108H41.3184Z" fill="#408DC3"/>
<path d="M37.923 60.1423C36.0029 61.9456 35.0896 63.9129 35.8155 64.8614C35.8858 64.9551 35.9912 65.0371 36.0965 65.0956C36.1902 65.1542 36.3073 65.201 36.4127 65.2478H36.4244H36.6117L36.8576 65.2595C36.8576 65.2595 36.6937 65.4001 36.7171 65.4001H36.8107C37.4547 65.4001 41.5526 66.8872 42.7234 70.2129C42.7234 70.5056 42.8171 70.8101 42.9576 71.1145C43.0981 71.419 43.1449 71.7234 43.2854 72.0162C43.4142 72.2855 43.4962 72.5548 43.6249 72.8242C43.7889 73.1521 43.9177 73.4799 44.0816 73.8078C44.2104 74.0654 44.3274 74.3348 44.4562 74.5924C44.6201 74.932 44.7841 75.2481 44.948 75.5877C45.0768 75.8454 45.2173 76.1147 45.3461 76.3723C45.5217 76.7002 45.6856 77.192 45.8612 77.5199C45.9666 77.7189 46.0837 78 46.1891 78H54.7946L58.108 77.7658C58.752 77.4613 59.8643 77.6018 60.5434 77.274C59.8643 76.4543 60.5317 77.2622 60.5434 77.274C60.7658 77.5433 61.0117 77.3325 60.7775 77.0515C60.5902 76.8173 60.3912 76.5714 60.1921 76.3489C59.958 76.0795 59.7238 75.7985 59.4896 75.5292C59.2906 75.3067 59.0915 75.0842 58.8925 74.8617C58.6466 74.5924 58.4008 74.3348 58.1549 74.0654C57.9558 73.8429 57.7451 73.6322 57.5343 73.4097C57.2885 73.1521 57.0309 72.8827 56.7733 72.6251C56.5626 72.4143 56.3518 72.2036 56.1528 71.9928C55.8952 71.7352 55.6259 71.4775 55.3683 71.2199C55.1576 71.0091 54.9468 70.8101 54.7361 70.5993C54.4668 70.3417 54.1975 70.0958 53.9282 69.8381C53.7175 69.6391 53.495 69.44 53.2842 69.2409C53.015 68.995 52.734 68.7491 52.4647 68.4915C52.2539 68.2924 52.0315 68.1051 51.809 67.906C51.5397 67.6601 51.2587 67.4259 50.9894 67.18C50.767 66.9809 50.5445 66.7936 50.3221 66.5945C50.0762 66.372 49.8186 66.2081 49.561 65.9973C49.3034 65.7748 49.0576 65.4001 48.8117 65.4001C45.9666 63.0581 45.6505 59.1001 45.6153 58.4209L45.3344 58.3975C45.3344 58.3858 45.0534 58.339 45.0534 58.3155C45.0534 58.2804 45.0534 58.2687 45.0534 58.2687H45.3226L45.4631 58.257C45.4514 58.1399 45.51 58.0228 45.4631 57.9174C45.428 57.8003 45.4046 57.6949 45.3461 57.6012C44.6201 56.6527 42.4073 57.0392 40.1593 58.4092L33.3568 49.5331V54.2054L37.923 60.1423Z" fill="#187BB6"/>
<path d="M22.3276 35.1767L20.5948 31.5232L15.7593 26.4762L14.7641 27.2608L13.7338 28.057L17.3048 34.1228L20.0679 36.8863L27.491 46.9686V42.2963L22.3276 35.1767Z" fill="#187BB6"/>
<path d="M28.6617 43.7483V48.4206L32.1742 52.7767V48.1044L28.6617 43.7483Z" fill="#187BB6"/>
<path d="M27.491 42.2963V46.9685L28.6618 48.4206V43.7483L27.491 42.2963Z" fill="#53A0D7"/>
<path d="M27.491 42.2963V46.9685L28.6618 48.4206V43.7483L27.491 42.2963Z" fill="#408DC3"/>
<path d="M32.1743 52.7766L33.3451 54.2287V49.5564L32.1743 48.1044V52.7766Z" fill="#53A0D7"/>
<path d="M32.1743 52.7766L33.3451 54.2287V49.5564L32.1743 48.1044V52.7766Z" fill="#408DC3"/>
<path d="M15.8296 19.3448L14.7875 20.1294L13.7572 20.914L17.3048 26.9797L20.3255 29.755L44.2455 61.2314L45.3695 60.3648L46.4935 59.51L22.5735 28.0453L20.7236 24.3918L15.8296 19.3448Z" fill="#F1F1F2"/>
<path d="M78.3165 60.2946L57.0894 33.1158C51.2119 25.5277 41.576 16.4525 41.576 16.4525L40.5691 17.2254L40.4988 17.2839L39.4802 18.0568C39.4802 18.0568 45.6505 29.7784 51.3875 37.4719L75.448 69.604C77.1691 66.899 78.2111 63.6788 78.3165 60.2946Z" fill="#FFDD00"/>
<path d="M42.8054 18.7593C41.1428 16.5696 39.1056 14.5906 37.244 12.5999C37.0801 12.4243 36.9162 12.3423 36.8342 12.4125C36.764 12.4711 36.7874 12.6585 36.9162 12.8575C38.3446 15.1878 39.7027 17.6703 41.3653 19.8601L42.8054 18.7593Z" fill="#00548A"/>
<path d="M63.8451 73.8312C63.6344 73.5385 63.4353 73.2457 63.2129 72.953C63.0373 72.7188 62.8616 72.4729 62.686 72.2387C62.4636 71.9576 62.2528 71.6766 62.0303 71.3956C61.843 71.1614 61.6557 70.9272 61.4684 70.693C61.2459 70.4236 61.0117 70.1426 60.7893 69.8733C60.6019 69.6391 60.4029 69.4166 60.2039 69.1941C59.9697 68.9248 59.7355 68.6554 59.5014 68.3861C59.3023 68.1636 59.1033 67.9411 58.9042 67.7186C58.6584 67.4493 58.4125 67.1917 58.1666 66.9224C57.9676 66.6999 57.7568 66.4891 57.5461 66.2783C57.3002 66.0207 57.0426 65.7514 56.7851 65.4937C56.5743 65.283 56.3636 65.0722 56.1645 64.8614C55.9069 64.6038 55.6376 64.3462 55.3801 64.0885C55.1693 63.8895 54.9586 63.6787 54.7478 63.4796C54.4785 63.222 54.2092 62.9761 53.94 62.7185C53.7292 62.5194 53.5067 62.3203 53.296 62.1213C53.0267 61.8754 52.7457 61.6295 52.4764 61.3718C52.2657 61.1728 52.0432 60.9737 51.8208 60.7863C51.5515 60.5404 51.2705 60.3062 51.0012 60.0603C50.7787 59.8613 50.5563 59.6622 50.3338 59.4748C50.0879 59.2523 49.8304 59.0416 49.5728 58.8308C49.3152 58.62 49.0693 58.3975 48.8234 58.1867C45.9783 56.0087 45.6622 51.9336 45.6271 51.2544C45.6271 51.2427 45.6271 51.2193 45.6271 51.1959C45.6271 51.1608 45.6271 51.1491 45.6271 51.1491H45.6154V51.1373C45.6037 51.0202 45.592 50.9031 45.5451 50.7978C45.51 50.6807 45.4515 50.5753 45.3929 50.4933C44.5382 49.3808 41.7282 50.0952 39.0939 52.0976C36.4712 54.1 35.0194 56.6293 35.8624 57.7418C35.9327 57.8354 36.0146 57.9057 36.12 57.976C36.2137 58.0345 36.319 58.0813 36.4244 58.1282C36.4244 58.1282 36.4361 58.1282 36.4361 58.1399L36.4244 58.1516C36.4244 58.1516 36.4361 58.1516 36.4712 58.1633C36.4947 58.1633 36.5064 58.175 36.5181 58.175C37.162 58.3858 41.0023 59.7793 42.3371 63.1049C42.4776 63.4094 42.6181 63.7021 42.7586 64.0066C42.8991 64.311 43.0396 64.6038 43.1801 64.9082C43.3089 65.1776 43.4377 65.4469 43.5664 65.7162C43.7304 66.0441 43.8826 66.372 44.0465 66.6999C44.1753 66.9575 44.3041 67.2268 44.4329 67.4844C44.5968 67.824 44.7607 68.1402 44.9363 68.4798C45.0651 68.7374 45.2056 69.0067 45.3461 69.2644C45.5217 69.5922 45.6856 69.9201 45.8613 70.248C46.0018 70.5056 46.1423 70.7632 46.2828 71.0326C46.4584 71.3487 46.634 71.6766 46.8096 71.9928C46.9501 72.2504 47.1023 72.508 47.2545 72.7656C47.4302 73.0818 47.6175 73.398 47.8048 73.7024C47.957 73.96 48.1092 74.2177 48.2732 74.4636C48.4605 74.768 48.6478 75.0842 48.8352 75.3887C48.9874 75.6463 49.1513 75.8922 49.3152 76.1498C49.5142 76.4425 49.7016 76.747 49.9006 77.0398C49.9591 77.1217 50.2401 77.555 50.5446 78.0234H59.7824H60.1102C62.2879 78.0234 64.3837 77.6135 66.3273 76.8992C65.777 76.1615 63.8451 73.8429 63.8451 73.8312Z" fill="#89C43F"/>
<path d="M17.2346 77.9531V60.7512H0.046875C0.526913 70.0021 7.98507 77.4613 17.2346 77.9531Z" fill="#0072A6"/>
<path d="M51.8324 26.9329C46.751 21.3356 41.5643 16.4525 41.5643 16.4525L40.5574 17.2254L40.4871 17.2839L39.4685 18.0568C39.4685 18.0568 42.7937 24.3567 46.8213 30.7504L51.8324 26.9329Z" fill="#F3C206"/>
<path d="M252.5 31.4764L244.433 42.4838L236.46 31.4764H233.322L242.841 44.6736L233.322 57.6599H236.46L244.433 46.8048L252.512 57.6599H255.673L245.99 44.6736L255.673 31.4764H252.5Z" fill="white"/>
<path d="M362.335 31.3008H359.713V57.4959H362.335V31.3008Z" fill="white"/>
<path d="M371.971 20.1997H369.348V57.4842H371.971V20.1997Z" fill="white"/>
<path d="M361.024 26.0078C361.923 26.0078 362.651 25.2791 362.651 24.3801C362.651 23.4812 361.923 22.7524 361.024 22.7524C360.125 22.7524 359.396 23.4812 359.396 24.3801C359.396 25.2791 360.125 26.0078 361.024 26.0078Z" fill="white"/>
<path d="M401.101 35.1768C398.502 32.5889 395.376 31.3008 391.711 31.3008C388.058 31.3008 384.92 32.5889 382.333 35.1768C379.745 37.753 378.446 40.8327 378.446 44.3925C378.446 47.9523 379.745 51.0321 382.333 53.6082C384.92 56.1961 388.058 57.4842 391.711 57.4842C395.376 57.4842 398.502 56.1961 401.101 53.6082C402.53 52.1796 403.536 50.5754 404.18 48.8423H401.218C400.715 49.9196 400.024 50.915 399.122 51.8166C397.038 53.8893 394.568 54.9198 391.711 54.9198C388.854 54.9198 386.384 53.8893 384.3 51.8166C382.345 49.8845 381.349 47.5542 381.232 44.8726H402.213H404.649H404.977C404.977 44.7087 405 44.5447 405 44.3808C405 40.8327 403.689 37.753 401.101 35.1768ZM381.373 42.3316C381.759 40.2823 382.731 38.479 384.3 36.9216C386.384 34.8489 388.843 33.8301 391.711 33.8301C394.58 33.8301 397.05 34.8606 399.122 36.9216C400.691 38.4907 401.663 40.294 402.05 42.3316H381.373Z" fill="white"/>
<path d="M310.339 31.3008C303.103 31.3008 297.249 37.1675 297.249 44.3925C297.249 51.6293 303.115 57.4842 310.339 57.4842C317.563 57.4842 323.429 51.6176 323.429 44.3925C323.429 37.1675 317.563 31.3008 310.339 31.3008ZM310.339 55.0837C304.45 55.0837 299.661 50.2943 299.661 44.4042C299.661 38.5141 304.45 33.7247 310.339 33.7247C316.228 33.7247 321.017 38.5141 321.017 44.4042C321.017 50.2943 316.216 55.0837 310.339 55.0837Z" fill="white"/>
<path d="M340.687 31.3125C336.378 31.3125 332.573 33.3968 330.184 36.6054V20.1997H327.597V44.4042C327.597 51.6409 333.463 57.4959 340.687 57.4959C347.911 57.4959 353.776 51.6292 353.776 44.4042C353.788 37.1791 347.922 31.3125 340.687 31.3125ZM340.687 55.0954C334.797 55.0954 329.997 50.306 329.997 44.4159C329.997 38.5258 334.797 33.7247 340.687 33.7247C346.576 33.7247 351.365 38.5141 351.365 44.4159C351.365 50.3177 346.576 55.0954 340.687 55.0954Z" fill="white"/>
<path d="M225.302 36.8278C222.913 33.6193 219.108 31.5232 214.8 31.5232C207.564 31.5232 201.698 37.3899 201.698 44.615C201.698 51.84 207.564 57.7067 214.8 57.7067C219.108 57.7067 222.913 55.6106 225.302 52.4021V57.7301H227.889V45.5518V44.4393V31.4061H225.302V36.8278ZM214.8 55.2944C208.91 55.2944 204.11 50.5051 204.11 44.615C204.11 38.7248 208.899 33.9238 214.8 33.9238C220.689 33.9238 225.477 38.7131 225.477 44.615C225.477 50.5051 220.689 55.2944 214.8 55.2944Z" fill="white"/>
<path d="M99.8596 20.7501C99.6138 20.996 99.485 21.3005 99.485 21.6518V56.3366C99.485 56.6996 99.6021 56.9924 99.8362 57.2149C100.07 57.4491 100.34 57.5779 100.668 57.6247H125.22V55.0017H102.096V40.2472H122.012L123.92 37.6241H102.096V22.9867H125.208V20.3754H100.761C100.41 20.3754 100.106 20.5042 99.8596 20.7501Z" fill="white"/>
<path d="M134.223 55.0134L157.78 22.4012C158.061 22.0148 158.096 21.4995 157.886 21.0662C157.663 20.633 157.23 20.3636 156.75 20.3636H131.718V22.9281H154.244L154.209 22.9867L130.652 55.5989C130.371 55.9853 130.336 56.5006 130.547 56.9338C130.769 57.3671 131.203 57.6364 131.683 57.6364H158.202V55.0719H134.188L134.223 55.0134Z" fill="white"/>
<path d="M195.364 20.4573C194.849 20.2934 194.287 20.469 193.971 20.9023L180.553 39.2284L167.1 20.8555C166.784 20.4222 166.222 20.2348 165.707 20.4105C165.192 20.5744 164.852 21.0545 164.852 21.5932V57.6716H167.346V25.4106L179.429 41.9217C179.511 42.0973 179.628 42.2613 179.804 42.3901C180.366 42.7999 181.138 42.6711 181.548 42.1207L193.736 25.4809V57.6833H196.23V21.64C196.23 21.1014 195.879 20.6213 195.364 20.4573Z" fill="white"/>
<path d="M291.898 20.4573C291.383 20.2934 290.821 20.469 290.505 20.9023L277.099 39.2284L263.646 20.8555C263.33 20.4222 262.768 20.2348 262.253 20.4105C261.738 20.5744 261.387 21.0545 261.387 21.5932V57.6716H263.88V25.4106L275.963 41.9217C276.045 42.0973 276.162 42.2613 276.326 42.3901C276.888 42.7999 277.661 42.6711 278.071 42.1207L290.259 25.4809V57.6833H292.753V21.64C292.765 21.1014 292.413 20.6213 291.898 20.4573Z" fill="white"/>
</g>
<defs>
<clipPath id="clip0_6_142">
<rect width="405" height="78" fill="white"/>
</clipPath>
</defs>
</svg>
