<svg width="432" height="79" viewBox="0 0 432 79" fill="none" xmlns="http://www.w3.org/2000/svg">
<g clip-path="url(#clip0_5_10)">
<mask id="mask0_5_10" style="mask-type:luminance" maskUnits="userSpaceOnUse" x="0" y="0" width="79" height="79">
<path d="M61.8305 0H16.8136C7.52769 0 0 7.56176 0 16.8897V62.1103C0 71.4382 7.52769 79 16.8136 79H61.8305C71.1164 79 78.6441 71.4382 78.6441 62.1103V16.8897C78.6441 7.56176 71.1164 0 61.8305 0Z" fill="white"/>
</mask>
<g mask="url(#mask0_5_10)">
<path d="M78.6441 0H0V79H78.6441V0Z" fill="#87CCD3"/>
<path d="M78.6441 19.9968H0V79H78.6441V19.9968Z" fill="url(#paint0_linear_5_10)"/>
<path fill-rule="evenodd" clip-rule="evenodd" d="M10.3206 66.6561V28.8845H11.3067V66.6561H10.3206Z" fill="#C3E6E9"/>
<path fill-rule="evenodd" clip-rule="evenodd" d="M21.8715 66.6561V28.8845H22.8576V66.6561H21.8715Z" fill="#C3E6E9"/>
<path fill-rule="evenodd" clip-rule="evenodd" d="M33.4225 66.6561V28.8845H34.4085V66.6561H33.4225Z" fill="#C3E6E9"/>
<path fill-rule="evenodd" clip-rule="evenodd" d="M44.7274 66.6561V28.8845H45.7134V66.6561H44.7274Z" fill="#C3E6E9"/>
<path fill-rule="evenodd" clip-rule="evenodd" d="M56.0323 66.6561V28.8845H57.0187V66.6561H56.0323Z" fill="#C3E6E9"/>
<path fill-rule="evenodd" clip-rule="evenodd" d="M67.5833 67.1499V28.8845H68.5693V67.1499H67.5833Z" fill="#C3E6E9"/>
<path fill-rule="evenodd" clip-rule="evenodd" d="M10.0763 66.4077H68.5679V67.3985H10.0763V66.4077Z" fill="#C3E6E9"/>
<path fill-rule="evenodd" clip-rule="evenodd" d="M10.3221 41.4736H68.0763V42.4641H10.3221V41.4736Z" fill="#C3E6E9"/>
<path fill-rule="evenodd" clip-rule="evenodd" d="M10.3221 54.0641H68.0763V55.0549H10.3221V54.0641Z" fill="#C3E6E9"/>
<path fill-rule="evenodd" clip-rule="evenodd" d="M10.8136 28.8829H68.0762V29.8737H10.8136V28.8829Z" fill="#C3E6E9"/>
<path d="M63.7755 32.8346H14.8687C13.172 32.8346 11.7966 34.216 11.7966 35.9205C11.7966 37.625 13.172 39.0064 14.8687 39.0064H63.7755C65.4723 39.0064 66.8475 37.625 66.8475 35.9205C66.8475 34.216 65.4723 32.8346 63.7755 32.8346Z" fill="#649A20"/>
<path d="M51.2415 57.7686H27.894C26.1973 57.7686 24.822 59.1502 24.822 60.8547C24.822 62.559 26.1973 63.9406 27.894 63.9406H51.2415C52.9384 63.9406 54.3135 62.559 54.3135 60.8547C54.3135 59.1502 52.9384 57.7686 51.2415 57.7686Z" fill="#F1F2F2"/>
<path d="M65.0043 44.9314H38.7079C37.0111 44.9314 35.6356 46.3128 35.6356 48.0173C35.6356 49.7215 37.0111 51.1032 38.7079 51.1032H65.0043C66.7011 51.1032 68.0763 49.7215 68.0763 48.0173C68.0763 46.3128 66.7011 44.9314 65.0043 44.9314Z" fill="#1C8BC7"/>
<path d="M16.9837 80.6639V63.3563H-0.245728C0.310058 72.5683 7.81322 80.1051 16.9837 80.6639Z" fill="#2D909D"/>
<path fill-rule="evenodd" clip-rule="evenodd" d="M-4.84108 -9.00896C-7.60353 -9.00896 -9.9514 -6.48557 -9.9514 -3.23107V80.2564C-9.9514 83.5106 -7.60353 86.034 -4.84108 86.034H83.731C86.4936 86.034 88.8413 83.5106 88.8413 80.2564V-3.23107C88.8413 -6.48557 86.4936 -9.00896 83.731 -9.00896H-4.84108ZM-11.1841 -3.23107C-11.1841 -7.04249 -8.40415 -10.2472 -4.84108 -10.2472H83.731C87.2942 -10.2472 90.0741 -7.04249 90.0741 -3.23107V80.2564C90.0741 84.0677 87.2942 87.2724 83.731 87.2724H-4.84108C-8.40415 87.2724 -11.1841 84.0677 -11.1841 80.2564V-3.23107Z" fill="#AADADF"/>
<path fill-rule="evenodd" clip-rule="evenodd" d="M-6.51453 -1.95103C-6.51453 -3.87743 -5.10563 -5.55664 -3.23095 -5.55664H82.121C83.9957 -5.55664 85.4045 -3.87743 85.4045 -1.95103V79.9634C85.4045 81.89 83.9957 83.5691 82.121 83.5691H-3.23095C-5.10563 83.5691 -6.51453 81.89 -6.51453 79.9634V-1.95103ZM-3.23095 -4.31838C-4.30243 -4.31838 -5.28185 -3.32339 -5.28185 -1.95103V79.9634C-5.28185 81.3359 -4.30243 82.331 -3.23095 82.331H82.121C83.1925 82.331 84.172 81.3359 84.172 79.9634V-1.95103C84.172 -3.32339 83.1925 -4.31838 82.121 -4.31838H-3.23095Z" fill="#AADADF"/>
<path d="M17.3459 61.4718H0V78.8965H17.3459V61.4718Z" fill="#48868C"/>
<path fill-rule="evenodd" clip-rule="evenodd" d="M-0.984863 19.3797C-0.984863 19.0378 -0.70892 18.7606 -0.36853 18.7606H79.0127C79.3533 18.7606 79.6291 19.0378 79.6291 19.3797C79.6291 19.7217 79.3533 19.9989 79.0127 19.9989H-0.36853C-0.70892 19.9989 -0.984863 19.7217 -0.984863 19.3797Z" fill="white" fill-opacity="0.5"/>
<path d="M79.817 61.1427L57.8783 33.2723C52.022 25.5687 42.261 16.464 42.261 16.464L41.285 17.3044H41.1456L40.309 18.0047C40.309 18.0047 46.4443 29.7707 52.3006 37.6149L77.0281 70.6671C78.7014 67.8659 79.817 64.6443 79.817 61.1427Z" fill="#FFDD00"/>
<path d="M43.6554 18.705C41.9821 16.4638 39.8905 14.5028 38.0776 12.5418C37.9385 12.4018 37.7988 12.2617 37.6594 12.4018C37.52 12.4018 37.6594 12.6819 37.7988 12.822C39.1933 15.2032 40.5877 17.7245 42.2609 19.8255L43.6554 18.705Z" fill="#00558B"/>
<path d="M52.719 26.9692C47.5599 21.3664 42.4006 16.3239 42.4006 16.3239L41.4243 17.1642H41.285L40.309 18.0047C40.309 18.0047 43.6554 24.3079 47.6991 30.7509L52.719 26.9692Z" fill="#F3C206"/>
</g>
<mask id="mask1_5_10" style="mask-type:luminance" maskUnits="userSpaceOnUse" x="99" y="21" width="334" height="38">
<path d="M432.119 21.2483H99.644V58.8414H432.119V21.2483Z" fill="white"/>
</mask>
<g mask="url(#mask1_5_10)">
<path d="M296.232 21.2483H293.464V58.8414H296.232V21.2483Z" fill="white"/>
<path d="M324.447 37.6511C322.06 34.4021 318.125 32.283 313.911 32.283C306.605 32.283 300.704 38.2164 300.704 45.5623C300.704 52.9082 306.605 58.8414 313.911 58.8414C318.266 58.8414 322.06 56.7223 324.447 53.4732V58.8414H327.115V46.4098V45.2798V32.1418H324.447V37.6511ZM313.911 56.4401C308.01 56.4401 303.093 51.6369 303.093 45.5623C303.093 39.6289 307.869 34.6846 313.911 34.6846C319.95 34.6846 324.729 39.4878 324.729 45.5623C324.729 51.6369 319.809 56.4401 313.911 56.4401Z" fill="white"/>
<path d="M344.121 32.4243C341.03 32.4243 338.356 33.6957 336.249 36.2387V32.1418H333.719V58.7003H336.249V43.1607C336.249 40.9005 337.092 38.9228 338.779 37.3686C340.327 35.8148 342.296 34.967 344.544 34.967C346.793 34.967 348.62 35.8148 350.31 37.3686C351.856 38.9228 352.699 40.9005 352.699 43.1607V58.8414H355.229V43.1607C355.229 40.1941 354.245 37.6511 352.138 35.6734C349.889 33.4132 347.216 32.4243 344.121 32.4243Z" fill="white"/>
<path d="M371.172 32.4955C368.081 32.4955 365.407 33.7568 363.297 36.2793V32.3555H360.767V58.7014H363.297V43.2863C363.297 41.0441 364.14 39.0822 365.827 37.5406C367.376 35.999 369.344 35.1583 371.592 35.1583C373.843 35.1583 375.671 35.999 377.361 37.5406C378.906 39.0822 379.75 41.0441 379.75 43.2863V58.8414H382.28V43.1461C382.28 40.2032 381.296 37.6806 379.186 35.7187C376.794 33.6167 374.264 32.4955 371.172 32.4955Z" fill="white"/>
<path d="M400.314 32.569C396.661 32.569 393.428 33.8267 390.898 36.4816C388.23 39.1369 386.966 42.2113 386.966 45.705C386.966 49.3385 388.23 52.413 390.898 54.9284C393.569 57.5836 396.661 58.8414 400.314 58.8414C403.967 58.8414 407.197 57.5836 409.727 54.9284C411.134 53.5309 412.254 51.854 412.818 50.177H409.868C409.306 51.295 408.601 52.2732 407.758 53.1117C405.654 55.2079 403.123 56.1862 400.314 56.1862C397.363 56.1862 394.974 55.2079 392.867 53.1117C390.898 51.1552 389.914 48.7795 389.776 46.1243H410.993H413.521H413.803C413.803 45.9848 413.803 45.8448 413.803 45.5653C413.803 41.9318 412.536 38.8574 409.868 36.3422C407.197 33.8267 403.967 32.569 400.314 32.569ZM389.914 43.6088C390.337 41.5126 391.321 39.6959 392.867 38.1586C394.974 36.0627 397.504 35.0844 400.314 35.0844C403.262 35.0844 405.654 36.0627 407.758 38.1586C409.306 39.6959 410.291 41.5126 410.711 43.6088H389.914Z" fill="white"/>
<path d="M421.862 39.1369C421.721 39.2766 421.583 39.5561 421.442 39.8356V32.569H418.915V58.8414H421.442V45.9848C421.442 45.8448 421.442 45.705 421.583 45.5653C422.426 43.1896 423.411 41.2331 424.672 39.5561C426.923 36.7614 429.309 35.3639 432.119 35.3639V32.7087C428.045 32.8485 424.672 34.9447 421.862 39.1369Z" fill="white"/>
<path d="M276.512 21.6755H263.173H262.34H261.089V22.9283V26.2691V58.8414H263.729V42.8335L276.653 42.6943C279.571 42.6943 282.071 41.7202 284.016 39.6321C286.101 37.5441 287.075 35.0384 287.075 32.1154C287.075 29.1921 286.101 26.6867 284.016 24.5987C281.933 22.6499 279.433 21.6755 276.512 21.6755ZM282.209 37.8225C280.683 39.3537 278.736 40.1889 276.512 40.1889H263.59V24.1811H276.512C278.736 24.1811 280.542 25.0163 282.209 26.5475C283.739 28.0785 284.572 30.0274 284.572 32.2546C284.572 34.4819 283.739 36.2912 282.209 37.8225Z" fill="white"/>
<path d="M100.06 22.0916C99.7826 22.2303 99.644 22.6463 99.644 22.9236V57.5935C99.644 58.0092 99.7826 58.2868 100.06 58.4254C100.337 58.7027 100.614 58.8414 100.891 58.8414H125.416V56.3453H102.277V41.5066H122.229L124.169 38.8718H102.277V24.3104H125.416V21.6755H100.891C100.614 21.6755 100.337 21.8142 100.06 22.0916Z" fill="white"/>
<path d="M134.224 56.1314L157.8 23.5421C158.077 23.1261 158.077 22.71 157.938 22.1553C157.661 21.7393 157.245 21.4619 156.829 21.4619H131.867V23.9581H154.333L130.757 56.5477C130.48 56.9636 130.48 57.5183 130.618 57.9345C130.896 58.3502 131.312 58.6278 131.728 58.6278H158.216V56.1314H134.224Z" fill="white"/>
<path d="M252.356 32.7826L244.3 43.7328L236.382 32.7826H233.188L242.772 45.9505L233.188 58.8414H236.382L244.3 48.0299L252.356 58.8414H255.551L245.828 45.9505L255.551 32.7826H252.356Z" fill="white"/>
<path d="M225.229 37.9903C222.873 34.793 218.992 32.7079 214.695 32.7079C207.487 32.7079 201.665 38.5463 201.665 45.7745C201.665 53.003 207.487 58.8414 214.695 58.8414C218.992 58.8414 222.734 56.7563 225.229 53.559V58.8414H227.863V46.6086V45.4966V32.569H225.229V37.9903ZM214.833 56.4782C209.012 56.4782 204.16 51.6129 204.16 45.7745C204.16 39.9364 209.012 35.0711 214.833 35.0711C220.655 35.0711 225.506 39.9364 225.506 45.7745C225.506 51.7521 220.655 56.4782 214.833 56.4782Z" fill="white"/>
<path d="M195.296 21.514C194.742 21.3752 194.188 21.514 193.911 21.9303L180.473 40.3859L167.035 21.9303C166.758 21.514 166.204 21.3752 165.65 21.514C165.095 21.6527 164.819 22.2078 164.819 22.7628V58.8414H167.312V26.5095L179.365 43.0223C179.503 43.161 179.503 43.2999 179.781 43.4389C180.335 43.8551 181.166 43.7162 181.581 43.161L193.773 26.5095V58.7025H196.128V22.6241C196.128 22.2078 195.712 21.6527 195.296 21.514Z" fill="white"/>
</g>
</g>
<defs>
<linearGradient id="paint0_linear_5_10" x1="21.4087" y1="82.1142" x2="85.4167" y2="5.89359" gradientUnits="userSpaceOnUse">
<stop stop-color="#6BB4BC"/>
<stop offset="1" stop-color="#9DDCE3"/>
</linearGradient>
<clipPath id="clip0_5_10">
<rect width="432" height="79" fill="white"/>
</clipPath>
</defs>
</svg>
