<svg xmlns="http://www.w3.org/2000/svg" viewBox="0 0 345.91 66.61">
<g>
	<path fill="#198BC6" d="M51.35,0h-0.28H15.82h-0.28C6.99,0,0,6.99,0,15.54v35.53c0,8.54,6.99,15.54,15.54,15.54h0.28h27.37
		l13.47-0.96l-0.01,0.01c3.23-1.19,5.97-3.42,7.8-6.29l2.41-7.81c0-0.17,0.02-0.33,0.02-0.49V37.51v-7.53V15.54
		C66.89,6.99,59.89,0,51.35,0z"/>
	<g>
		<g>
			<g>
				<path fill="none" d="M51.71,65.92C51.13,65.21,51.7,65.9,51.71,65.92L51.71,65.92z"/>
				<path fill="none" d="M24.48,21.86v15.5l3,3.72V24.86h7.81c-0.85-2-1.41-3-1.54-3H24.48z"/>
				<path fill="#187BB6" d="M35.29,24.86h4.53c-1.11-1-2.09-2-2.84-3h-3.24C33.88,21.86,34.44,22.86,35.29,24.86z"/>
				<path fill="#187BB6" d="M35.51,20.33l-0.36,0.25c-1.08-1.22-2.24-2.4-3.33-3.57c-0.14-0.15-0.28-0.22-0.35-0.17
					c-0.06,0.05-0.04,0.25,0.07,0.42c0.72,1.17,1.45,2.6,2.2,3.6h2.28C35.7,20.86,35.51,20.33,35.51,20.33z"/>
				<path fill="#187BB6" d="M35.82,25.86c1.99,3,5.09,8.58,8.06,12.56L62.2,62.25c0.01-0.01,0.03-0.07,0.04-0.08l0.59-0.66
					c0.14-0.16,0.29-0.32,0.43-0.48l0.2-0.25c0.94-1.18,1.72-2.49,2.29-3.9L48.76,34.53c-2.38-3.07-5.48-6.24-8.09-8.93l-0.09,0.26
					H35.82z"/>
				<polygon fill="#53A0D7" points="23.48,66.61 24.48,66.61 24.48,41.35 23.48,40.11"/>
				<path fill="#53A0D7" d="M24.48,21.86h9.27c-0.02,0-0.03-0.13-0.03-0.13l0.38-0.28c-0.13-0.19-0.25-0.58-0.37-0.58H23.48v15.26
					l1,1.24V21.86z"/>
				<path fill="#53A0D7" d="M38.86,21.86l10.45-9h17.33c-0.06,0-0.12-1-0.2-1H48.96l-10.45,9h-2.5c0.25,0,0.57,0,0.97,1H38.86z"/>
				<path fill="#408DC3" d="M33.71,21.72c0,0,0.01,0.13,0.03,0.13h3.24c-0.4-1-0.73-1-0.97-1h-2.28c0.12,0,0.24,0.39,0.37,0.58
					L33.71,21.72z"/>
				<polygon fill="#53A0D7" points="27.48,66.61 28.48,66.61 28.48,46.31 27.48,45.07"/>
				<path fill="#53A0D7" d="M66.89,16.86v-1H50.85l-10.61,9h-0.42c0.28,0,0.56,0.53,0.85,0.83l10.52-8.83H66.89z"/>
				<path fill="#53A0D7" d="M27.48,24.86v16.22l1,1.24V25.86h7.34c-0.19-1-0.36-1-0.53-1H27.48z"/>
				<path fill="#408DC3" d="M35.29,24.86c0.17,0,0.34,0,0.53,1h4.77l0.09-0.1c-0.29-0.3-0.57-0.9-0.85-0.9H35.29z"/>
				<path fill="#187BB6" d="M32.39,51.36c-1.64,1.54-2.42,3.22-1.8,4.03c0.06,0.08,0.15,0.15,0.24,0.2
					c0.08,0.05,0.18,0.09,0.27,0.13c0,0,0.01,0,0.01,0l0.16,0c0,0,0.21,0.01,0.21,0.01v0c0,0-0.14,0.12-0.12,0.12h0.08
					c0.55,0,4.05,1.27,5.05,4.11c0,0,0,0,0,0c0,0.25,0.08,0.51,0.2,0.77c0.12,0.26,0.16,0.52,0.28,0.77
					c0.11,0.23,0.18,0.46,0.29,0.69c0.14,0.28,0.25,0.56,0.39,0.84c0.11,0.22,0.21,0.45,0.32,0.67c0.14,0.29,0.28,0.56,0.42,0.85
					c0.11,0.22,0.23,0.45,0.34,0.67c0.15,0.28,0.29,0.7,0.44,0.98c0.09,0.17,0.19,0.41,0.28,0.41h7.35l2.83-0.2
					c0.55-0.26,1.5-0.14,2.08-0.42c-0.01-0.01-0.58-0.7,0,0c0.19,0.23,0.4,0.05,0.2-0.19c-0.16-0.2-0.33-0.41-0.5-0.6
					c-0.2-0.23-0.4-0.47-0.6-0.7c-0.17-0.19-0.34-0.38-0.51-0.57c-0.21-0.23-0.42-0.45-0.63-0.68c-0.17-0.19-0.35-0.37-0.53-0.56
					c-0.21-0.22-0.43-0.45-0.65-0.67c-0.18-0.18-0.36-0.36-0.53-0.54c-0.22-0.22-0.45-0.44-0.67-0.66
					c-0.18-0.18-0.36-0.35-0.54-0.53c-0.23-0.22-0.46-0.43-0.69-0.65c-0.18-0.17-0.37-0.34-0.55-0.51c-0.23-0.21-0.47-0.42-0.7-0.64
					c-0.18-0.17-0.37-0.33-0.56-0.5c-0.23-0.21-0.47-0.41-0.7-0.62c-0.19-0.17-0.38-0.33-0.57-0.5c-0.21-0.19-0.43-0.33-0.65-0.51
					c-0.22-0.19-0.43-0.51-0.64-0.51h0c-2.43-2-2.7-5.38-2.73-5.96l-0.24-0.02c0-0.01-0.24-0.05-0.24-0.07c0-0.03,0-0.04,0-0.04
					l0.23,0c0,0,0.12-0.01,0.12-0.01c-0.01-0.1,0.04-0.2,0-0.29c-0.03-0.1-0.05-0.19-0.1-0.27c-0.62-0.81-2.51-0.48-4.43,0.69
					l-5.81-7.58v3.99L32.39,51.36z"/>
				<polygon fill="#187BB6" points="19.07,30.04 17.59,26.92 13.46,22.61 12.61,23.28 11.73,23.96 14.78,29.14 17.14,31.5 
					23.48,40.11 23.48,36.12"/>
				<polygon fill="#187BB6" points="24.48,37.36 24.48,41.35 27.48,45.07 27.48,41.08"/>
				<polygon fill="#53A0D7" points="23.48,36.12 23.48,40.11 24.48,41.35 24.48,37.36"/>
				<polygon fill="#408DC3" points="23.48,36.12 23.48,40.11 24.48,41.35 24.48,37.36"/>
				<polygon fill="#53A0D7" points="27.48,45.07 28.48,46.31 28.48,42.32 27.48,41.08"/>
				<polygon fill="#408DC3" points="27.48,45.07 28.48,46.31 28.48,42.32 27.48,41.08"/>
			</g>
			<polygon fill="#F1F1F2" points="13.52,16.52 12.63,17.19 11.75,17.86 14.78,23.04 17.36,25.41 37.79,52.29 38.75,51.55 
				39.71,50.82 19.28,23.95 17.7,20.83 			"/>
			<path fill="#FFDD00" d="M66.89,51.49L48.76,28.28c-5.02-6.48-13.25-14.23-13.25-14.23l-0.86,0.66l-0.06,0.05l-0.87,0.66
				c0,0,5.27,10.01,10.17,16.58l20.55,27.44C65.91,57.13,66.8,54.38,66.89,51.49z"/>
			<path fill="#00548A" d="M36.56,16.02c-1.42-1.87-3.16-3.56-4.75-5.26c-0.14-0.15-0.28-0.22-0.35-0.16
				c-0.06,0.05-0.04,0.21,0.07,0.38c1.22,1.99,2.38,4.11,3.8,5.98L36.56,16.02z"/>
			<path fill="#89C43F" d="M54.53,63.05c-0.18-0.25-0.35-0.5-0.54-0.75c-0.15-0.2-0.3-0.41-0.45-0.61
				c-0.19-0.24-0.37-0.48-0.56-0.72c-0.16-0.2-0.32-0.4-0.48-0.6c-0.19-0.23-0.39-0.47-0.58-0.7c-0.16-0.2-0.33-0.39-0.5-0.58
				c-0.2-0.23-0.4-0.46-0.6-0.69c-0.17-0.19-0.34-0.38-0.51-0.57c-0.21-0.23-0.42-0.45-0.63-0.68c-0.17-0.19-0.35-0.37-0.53-0.55
				c-0.21-0.22-0.43-0.45-0.65-0.67c-0.18-0.18-0.36-0.36-0.53-0.54c-0.22-0.22-0.45-0.44-0.67-0.66c-0.18-0.17-0.36-0.35-0.54-0.52
				c-0.23-0.22-0.46-0.43-0.69-0.65c-0.18-0.17-0.37-0.34-0.55-0.51c-0.23-0.21-0.47-0.42-0.7-0.64c-0.18-0.17-0.37-0.34-0.56-0.5
				c-0.23-0.21-0.47-0.41-0.7-0.62c-0.19-0.17-0.38-0.34-0.57-0.5c-0.21-0.19-0.43-0.37-0.65-0.55c-0.22-0.18-0.43-0.37-0.64-0.55
				c0,0,0,0,0,0c-2.43-1.86-2.7-5.34-2.73-5.92l0,0c0-0.01,0-0.03,0-0.05v0c0-0.03,0-0.04,0-0.04l-0.01,0c0,0,0-0.01,0-0.01
				c-0.01-0.1-0.02-0.2-0.06-0.29c-0.03-0.1-0.08-0.19-0.13-0.26c-0.73-0.95-3.13-0.34-5.38,1.37c-2.24,1.71-3.48,3.87-2.76,4.82
				c0.06,0.08,0.13,0.14,0.22,0.2c0.08,0.05,0.17,0.09,0.26,0.13c0,0,0.01,0,0.01,0.01l-0.01,0.01c0,0,0.01,0,0.04,0.01
				c0.02,0,0.03,0.01,0.04,0.01h0c0.55,0.18,3.83,1.37,4.97,4.21h0c0.12,0.26,0.24,0.51,0.36,0.77c0.12,0.26,0.24,0.51,0.36,0.77
				c0.11,0.23,0.22,0.46,0.33,0.69c0.14,0.28,0.27,0.56,0.41,0.84c0.11,0.22,0.22,0.45,0.33,0.67c0.14,0.29,0.28,0.56,0.43,0.85
				c0.11,0.22,0.23,0.45,0.35,0.67c0.15,0.28,0.29,0.56,0.44,0.84c0.12,0.22,0.24,0.44,0.36,0.67c0.15,0.27,0.3,0.55,0.45,0.82
				c0.12,0.22,0.25,0.44,0.38,0.66c0.15,0.27,0.31,0.54,0.47,0.8c0.13,0.22,0.26,0.44,0.4,0.65c0.16,0.26,0.32,0.53,0.48,0.79
				c0.13,0.22,0.27,0.43,0.41,0.65c0.17,0.25,0.33,0.51,0.5,0.76c0.05,0.07,0.29,0.44,0.55,0.84h7.89h0.28
				c1.86,0,3.65-0.35,5.31-0.96C56.18,65.04,54.53,63.06,54.53,63.05z"/>
			<path fill="#0072A6" d="M14.72,66.57V51.88H0.04C0.45,59.78,6.82,66.15,14.72,66.57z"/>
			<path fill="#F3C206" d="M44.27,23c-4.34-4.78-8.77-8.95-8.77-8.95l-0.86,0.66l-0.06,0.05l-0.87,0.66c0,0,2.84,5.38,6.28,10.84
				L44.27,23z"/>
		</g>
	</g>
</g>
<g class="text-group">
	<polygon fill="#60636A" points="215.66,26.88 208.77,36.28 201.96,26.88 199.28,26.88 207.41,38.15 199.28,49.24 201.96,49.24 
		208.77,39.97 215.67,49.24 218.37,49.24 210.1,38.15 218.37,26.88 	"/>
	<rect x="307.23" y="26.73" fill="#60636A" width="2.24" height="22.37"/>
	<rect x="315.46" y="17.25" fill="#60636A" width="2.24" height="31.84"/>
	<circle fill="#60636A" cx="308.35" cy="20.82" r="1.39"/>
	<path fill="#60636A" d="M342.58,30.04c-2.22-2.21-4.89-3.31-8.02-3.31c-3.12,0-5.8,1.1-8.01,3.31c-2.21,2.2-3.32,4.83-3.32,7.87
		c0,3.04,1.11,5.67,3.32,7.87c2.21,2.21,4.89,3.31,8.01,3.31c3.13,0,5.8-1.1,8.02-3.31c1.22-1.22,2.08-2.59,2.63-4.07h-2.53
		c-0.43,0.92-1.02,1.77-1.79,2.54c-1.78,1.77-3.89,2.65-6.33,2.65c-2.44,0-4.55-0.88-6.33-2.65c-1.67-1.65-2.52-3.64-2.62-5.93
		h17.92h2.08h0.28c0-0.14,0.02-0.28,0.02-0.42C345.91,34.87,344.79,32.24,342.58,30.04z M325.73,36.15c0.33-1.75,1.16-3.29,2.5-4.62
		c1.78-1.77,3.88-2.64,6.33-2.64c2.45,0,4.56,0.88,6.33,2.64c1.34,1.34,2.17,2.88,2.5,4.62H325.73z"/>
	<path fill="#60636A" d="M265.06,26.73c-6.18,0-11.18,5.01-11.18,11.18c0,6.18,5.01,11.18,11.18,11.18
		c6.17,0,11.18-5.01,11.18-11.18C276.24,31.74,271.23,26.73,265.06,26.73z M265.06,47.04c-5.03,0-9.12-4.09-9.12-9.12
		c0-5.03,4.09-9.12,9.12-9.12c5.03,0,9.12,4.09,9.12,9.12C274.18,42.95,270.08,47.04,265.06,47.04z"/>
	<path fill="#60636A" d="M290.98,26.74c-3.68,0-6.93,1.78-8.97,4.52V17.25h-2.21v20.67c0,6.18,5.01,11.18,11.18,11.18
		c6.17,0,11.18-5.01,11.18-11.18C302.17,31.75,297.16,26.74,290.98,26.74z M290.98,47.05c-5.03,0-9.13-4.09-9.13-9.12
		s4.1-9.13,9.13-9.13c5.03,0,9.12,4.09,9.12,9.13S296.01,47.05,290.98,47.05z"/>
	<path fill="#60636A" d="M192.43,31.45c-2.04-2.74-5.29-4.53-8.97-4.53c-6.18,0-11.19,5.01-11.19,11.18
		c0,6.17,5.01,11.18,11.19,11.18c3.68,0,6.93-1.79,8.97-4.53v4.55h2.21V38.9v-0.95V26.82h-2.21V31.45z M183.46,47.22
		c-5.03,0-9.13-4.09-9.13-9.12c0-5.03,4.09-9.13,9.13-9.13c5.03,0,9.12,4.09,9.12,9.13C192.58,43.13,188.49,47.22,183.46,47.22z"/>
	<path fill="#60636A" d="M85.29,17.72c-0.21,0.21-0.32,0.47-0.32,0.77v29.62c0,0.31,0.1,0.56,0.3,0.75c0.2,0.2,0.43,0.31,0.71,0.35
		h20.97v-2.24H87.2v-12.6h17.01l1.63-2.24H87.2V19.63h19.74V17.4H86.06C85.76,17.4,85.5,17.51,85.29,17.72z"/>
	<path fill="#60636A" d="M114.64,46.98l20.12-27.85c0.24-0.33,0.27-0.77,0.09-1.14c-0.19-0.37-0.56-0.6-0.97-0.6H112.5v2.19h19.24
		l-0.03,0.05l-20.12,27.85c-0.24,0.33-0.27,0.77-0.09,1.14c0.19,0.37,0.56,0.6,0.97,0.6h22.65v-2.19h-20.51L114.64,46.98z"/>
	<path fill="#60636A" d="M166.86,17.47c-0.44-0.14-0.92,0.01-1.19,0.38L154.21,33.5l-11.49-15.69c-0.27-0.37-0.75-0.53-1.19-0.38
		c-0.44,0.14-0.73,0.55-0.73,1.01v30.81h2.13V21.7l10.32,14.1c0.07,0.15,0.17,0.29,0.32,0.4c0.48,0.35,1.14,0.24,1.49-0.23
		l10.41-14.21v27.5h2.13V18.48C167.6,18.02,167.3,17.61,166.86,17.47z"/>
	<path fill="#60636A" d="M249.31,17.47c-0.44-0.14-0.92,0.01-1.19,0.38L236.67,33.5l-11.49-15.69c-0.27-0.37-0.75-0.53-1.19-0.38
		c-0.44,0.14-0.74,0.55-0.74,1.01v30.81h2.13V21.7l10.32,14.1c0.07,0.15,0.17,0.29,0.31,0.4c0.48,0.35,1.14,0.24,1.49-0.23
		l10.41-14.21v27.5h2.13V18.48C250.05,18.02,249.75,17.61,249.31,17.47z"/>
</g>
</svg>
