<svg width="496" height="112" viewBox="0 0 496 112" fill="none" xmlns="http://www.w3.org/2000/svg">
<g clip-path="url(#clip0_45_53)">
<path d="M0 1.00073H6.28536V77.3784H0V1.00073ZM78.7952 64.6842L32.6648 2.2775C32.2661 1.75155 31.7145 1.36195 31.0858 1.16216C30.4571 0.962362 29.782 0.962157 29.1531 1.16157C28.5248 1.36826 27.9778 1.76831 27.5902 2.30461C27.2025 2.84091 26.9941 3.48606 26.9945 4.14797V77.3784H33.2799V13.691L79.4102 76.1016C80.0035 76.8978 80.9498 77.3803 81.9399 77.3803C82.3529 77.3804 82.7618 77.2988 83.1433 77.1403C83.5247 76.9818 83.8712 76.7495 84.1628 76.4568C84.4544 76.164 84.6853 75.8166 84.8425 75.4343C84.9997 75.052 85.0799 74.6425 85.0786 74.2291V1.00073H78.7932L78.7952 64.6842ZM97.1771 7.29322H124.023V77.3784H130.312V7.29322H157.16V1.00073H97.1771V7.29322ZM255.91 42.0816C266.802 42.0816 275.669 33.2118 275.669 22.3086V20.7777C275.669 9.87257 266.802 1.00073 255.91 1.00073H172.403C170.667 1.00073 169.256 2.41451 169.256 4.14599V74.2252C169.256 75.9626 170.665 77.3764 172.403 77.3764H217.468V71.0819H175.546V42.3338H217.466V36.0393H175.546V7.29322H255.91C263.34 7.29322 269.382 13.3435 269.382 20.7797V22.3106C269.378 25.8849 267.957 29.3116 265.431 31.8388C262.906 34.3661 259.482 35.7874 255.91 35.7911H243.639C242.431 35.7911 241.316 36.498 240.794 37.5901C240.543 38.1292 240.449 38.7281 240.522 39.3183C240.595 39.9085 240.832 40.4663 241.207 40.928L271.098 77.3803H279.228L250.278 42.0836L255.91 42.0816Z" fill="#156CA3"/>
<path d="M304.814 103.321C304.252 102.92 303.633 102.606 302.977 102.389C302.218 102.131 301.45 101.897 300.676 101.689C299.977 101.514 299.366 101.351 298.842 101.202C298.404 101.084 297.98 100.919 297.579 100.708C297.263 100.533 297.033 100.338 296.882 100.112C296.731 99.8856 296.658 99.5898 296.658 99.2343C296.658 98.5731 296.9 98.0549 297.368 97.6935C297.864 97.3182 298.614 97.1256 299.608 97.1256C300.578 97.129 301.537 97.324 302.431 97.6994C302.802 97.8622 303.148 98.0469 303.455 98.2395C303.751 98.442 303.965 98.6108 304.1 98.7637L304.34 99.0318L305.842 96.3154L305.657 96.1844C304.855 95.6034 303.979 95.1325 303.052 94.7845C301.995 94.3993 300.876 94.209 299.751 94.2226C298.909 94.2166 298.07 94.333 297.261 94.5681C296.524 94.7789 295.835 95.1302 295.231 95.6026C294.651 96.0614 294.184 96.6478 293.866 97.3162C293.526 98.044 293.358 98.8402 293.374 99.6434C293.374 100.362 293.487 100.954 293.716 101.456C293.946 101.965 294.279 102.397 294.729 102.779C295.18 103.158 295.731 103.476 296.37 103.72C297.009 103.972 297.765 104.214 298.606 104.439C299.338 104.629 299.987 104.808 300.559 104.971C301.106 105.134 301.58 105.32 301.967 105.523C302.326 105.725 302.604 105.95 302.789 106.2C302.972 106.474 303.064 106.799 303.052 107.129C303.052 107.765 302.814 108.229 302.324 108.555C301.802 108.9 301.049 109.075 300.08 109.075C299.453 109.075 298.818 109.002 298.207 108.857C297.637 108.721 297.077 108.542 296.535 108.319C296.079 108.13 295.642 107.901 295.227 107.634C294.925 107.44 294.642 107.217 294.382 106.968L294.138 106.73L292.63 109.524L292.805 109.657C293.815 110.425 294.949 111.016 296.158 111.402C297.388 111.801 298.676 112.002 299.985 112.002C300.854 112.002 301.681 111.909 302.437 111.718C303.211 111.529 303.904 111.228 304.497 110.824C305.098 110.402 305.576 109.863 305.919 109.216C306.276 108.561 306.455 107.753 306.455 106.817C306.455 106.005 306.312 105.304 306.022 104.739C305.735 104.179 305.321 103.693 304.814 103.321ZM345.57 94.3397H342.38V111.837H354.678V108.954H345.57V94.3397ZM375.31 103.208C375.314 103.943 375.24 104.676 375.088 105.396C374.961 106.052 374.713 106.679 374.356 107.244C374.023 107.781 373.584 108.201 373.027 108.537C372.477 108.859 371.773 109.026 370.932 109.026C370.102 109.026 369.402 108.863 368.852 108.545C368.304 108.238 367.841 107.8 367.503 107.27C367.152 106.7 366.904 106.072 366.771 105.416C366.627 104.688 366.555 103.949 366.555 103.208V94.3397H363.363V103.208C363.363 104.318 363.491 105.41 363.751 106.454C364.017 107.501 364.45 108.446 365.039 109.252C365.634 110.076 366.426 110.737 367.386 111.22C368.344 111.706 369.541 111.95 370.932 111.95C372.275 111.95 373.441 111.718 374.4 111.257C375.333 110.824 376.148 110.17 376.774 109.353C377.382 108.563 377.83 107.622 378.11 106.559C378.387 105.513 378.524 104.383 378.524 103.208V94.3397H375.31V103.208ZM387.974 97.2209H393.635V111.837H396.825V97.2209H402.465V94.3397H387.974V97.2209ZM412.225 94.3616H415.415V111.837H412.225V94.3616ZM464.264 106.105L455.02 94.435L454.941 94.3397H452.465V111.837H455.649V100.35L464.803 111.738L464.877 111.837H467.478V94.3616H464.264V106.105ZM490.794 104.739C490.503 104.179 490.09 103.694 489.584 103.319C489.021 102.919 488.402 102.606 487.746 102.389C486.986 102.132 486.218 101.898 485.443 101.689C484.83 101.536 484.219 101.374 483.612 101.202C483.175 101.082 482.752 100.916 482.35 100.708C482.073 100.568 481.833 100.364 481.652 100.112C481.494 99.8474 481.416 99.5423 481.429 99.2343C481.429 98.5592 481.663 98.0568 482.14 97.6935C482.634 97.3182 483.386 97.1256 484.374 97.1256C484.913 97.1256 485.425 97.1792 485.901 97.2864C486.387 97.3996 486.814 97.5326 487.201 97.6994C487.572 97.8622 487.917 98.0469 488.223 98.2395C488.516 98.4381 488.732 98.6108 488.871 98.7637L489.115 99.0298L490.613 96.3154L490.433 96.1844C489.63 95.604 488.753 95.1333 487.826 94.7845C486.768 94.3992 485.648 94.2088 484.522 94.2226C483.647 94.2226 482.808 94.3377 482.034 94.5681C481.261 94.7984 480.578 95.1459 479.999 95.6026C479.423 96.0655 478.958 96.6518 478.638 97.3182C478.302 98.0465 478.133 98.8412 478.146 99.6434C478.146 100.362 478.259 100.956 478.493 101.456C478.719 101.969 479.052 102.401 479.505 102.779C479.937 103.154 480.491 103.472 481.142 103.72C481.782 103.972 482.536 104.216 483.382 104.439C484.108 104.629 484.762 104.808 485.332 104.971C485.887 105.136 486.36 105.322 486.739 105.523C487.098 105.719 487.373 105.95 487.56 106.202C487.738 106.446 487.826 106.748 487.826 107.129C487.826 107.763 487.586 108.229 487.09 108.555C486.576 108.9 485.82 109.075 484.854 109.075C484.222 109.076 483.593 109.002 482.979 108.857C482.408 108.721 481.849 108.541 481.306 108.319C480.851 108.13 480.413 107.901 479.999 107.634C479.697 107.441 479.416 107.22 479.158 106.972L478.914 106.728L477.408 109.524L477.582 109.657C478.591 110.424 479.722 111.016 480.927 111.406C482.161 111.801 483.453 112.002 484.762 112.002C485.627 112.002 486.453 111.909 487.213 111.718C487.945 111.545 488.64 111.242 489.266 110.824C489.869 110.402 490.349 109.863 490.697 109.216C491.052 108.555 491.232 107.753 491.232 106.817C491.23 106.005 491.086 105.304 490.794 104.739ZM323.857 94.2206C321.509 94.2243 319.259 95.1594 317.599 96.8209C315.939 98.4825 315.005 100.735 315.002 103.084C315.005 105.434 315.938 107.687 317.598 109.349C319.258 111.011 321.509 111.947 323.857 111.95C326.206 111.949 328.459 111.014 330.12 109.352C331.782 107.69 332.717 105.436 332.719 103.084C332.716 100.734 331.781 98.4799 330.12 96.8181C328.458 95.1563 326.206 94.2222 323.857 94.2206ZM323.857 108.757C322.354 108.756 320.913 108.158 319.85 107.094C318.788 106.031 318.19 104.589 318.188 103.084C318.191 101.581 318.789 100.14 319.852 99.0774C320.914 98.0147 322.355 97.4171 323.857 97.4155C325.36 97.416 326.801 98.0132 327.864 99.076C328.928 100.139 329.526 101.58 329.529 103.084C329.528 104.589 328.929 106.032 327.866 107.096C326.802 108.159 325.36 108.757 323.857 108.757ZM433.936 94.2206C431.588 94.2232 429.336 95.1579 427.676 96.8195C426.015 98.4812 425.08 100.734 425.077 103.084C425.08 105.435 426.014 107.689 427.675 109.351C429.336 111.013 431.587 111.948 433.936 111.95C436.285 111.948 438.537 111.014 440.198 109.351C441.86 107.689 442.794 105.435 442.797 103.084C442.793 100.734 441.859 98.4806 440.198 96.8188C438.537 95.1571 436.285 94.2227 433.936 94.2206ZM433.936 108.757C432.433 108.756 430.992 108.158 429.93 107.094C428.867 106.031 428.269 104.589 428.268 103.084C428.27 101.581 428.868 100.14 429.931 99.0774C430.994 98.0147 432.434 97.4171 433.936 97.4155C435.438 97.4176 436.878 98.0155 437.94 99.0781C439.002 100.141 439.6 101.581 439.602 103.084C439.601 104.588 439.004 106.03 437.942 107.094C436.879 108.158 435.439 108.756 433.936 108.757Z" fill="#D5D3D3"/>
<path d="M456.925 0C435.38 0 417.856 17.5471 417.856 39.1111C417.856 60.6712 435.38 78.2104 456.925 78.2104C478.469 78.2104 496 60.6712 496 39.1111C496 17.5471 478.469 0 456.925 0ZM456.925 71.9219C438.848 71.9219 424.139 57.2003 424.139 39.1131C424.139 21.018 438.848 6.29646 456.925 6.29646C475.003 6.29646 489.715 21.018 489.715 39.1131C489.715 57.2003 475.003 71.9219 456.925 71.9219ZM386.429 42.0817C397.319 42.0817 406.184 33.2118 406.184 22.3087V20.7777C406.184 9.8726 397.319 1.00076 386.429 1.00076H358.399C356.665 1.00076 355.254 2.41454 355.254 4.14602V77.3764H361.539V7.29325H386.429C393.853 7.29325 399.896 13.3435 399.896 20.7797V22.3106C399.896 29.7429 393.853 35.7912 386.429 35.7912H374.154C372.943 35.7912 371.828 36.498 371.307 37.5901C371.055 38.1295 370.96 38.729 371.033 39.3198C371.107 39.9107 371.345 40.4688 371.721 40.93L401.616 77.2037L401.757 77.3804H409.902L380.792 42.0836L386.429 42.0817ZM322.93 1.00076H293.829V7.29127H322.93C330.357 7.29127 336.398 13.3415 336.398 20.7738V22.3067C336.395 25.8806 334.975 29.3073 332.45 31.8346C329.925 34.362 326.501 35.7835 322.93 35.7872H296.976C295.239 35.7872 293.829 37.199 293.829 38.9364V77.3784H300.118V42.0817H322.93C333.823 42.0817 342.685 33.2098 342.685 22.3087V20.7757C342.683 9.87459 333.821 1.00076 322.93 1.00076Z" fill="#4DB1E7"/>
</g>
<defs>
<clipPath id="clip0_45_53">
<rect width="496" height="112" fill="white"/>
</clipPath>
</defs>
</svg>
